<svg width="54" height="36" viewBox="0 0 54 36" fill="none" xmlns="http://www.w3.org/2000/svg">
<path d="M11.4688 35.4922C8.20312 35.4922 5.51562 34.6094 3.40625 32.8438C1.3125 31.0781 0.195312 28.3672 0.0546875 24.7109L0.101562 24.5703H5.70312C5.79688 26.8359 6.30469 28.4531 7.22656 29.4219C8.14844 30.375 9.42188 30.8516 11.0469 30.8516C12.6562 30.8516 13.9141 30.3359 14.8203 29.3047C15.7266 28.2734 16.1797 26.8359 16.1797 24.9922V5.21094L11.6094 4.53125V0.875H25.8125V4.50781L22.0859 5.21094V24.9922C22.0859 28.1953 21.1719 30.75 19.3438 32.6562C17.5312 34.5469 14.9062 35.4922 11.4688 35.4922ZM41.6328 35.4922C39.3203 35.4922 37.1562 35.2031 35.1406 34.625C33.1406 34.0469 31.1953 33.0859 29.3047 31.7422V23.8906H33.875L34.625 28.9531C35.4375 29.5625 36.4531 30.0469 37.6719 30.4062C38.9062 30.7656 40.2266 30.9453 41.6328 30.9453C43.6953 30.9453 45.2812 30.5078 46.3906 29.6328C47.5 28.7578 48.0547 27.5859 48.0547 26.1172C48.0547 24.7578 47.5391 23.625 46.5078 22.7188C45.4922 21.7969 43.6875 20.9844 41.0938 20.2812C37.2656 19.25 34.3828 17.9219 32.4453 16.2969C30.5078 14.6719 29.5391 12.5156 29.5391 9.82812C29.5391 8 30.0312 6.38281 31.0156 4.97656C32.0156 3.57031 33.3984 2.46094 35.1641 1.64844C36.9297 0.835937 38.9688 0.421875 41.2812 0.40625C43.8125 0.375 46.0469 0.703125 47.9844 1.39062C49.9375 2.07812 51.5859 2.97656 52.9297 4.08594V11.4219H48.4531L47.6094 6.64062C46.9688 6.1875 46.1328 5.80469 45.1016 5.49219C44.0859 5.16406 42.8828 5 41.4922 5C39.7109 5 38.2578 5.42969 37.1328 6.28906C36.0078 7.13281 35.4453 8.29688 35.4453 9.78125C35.4453 11.0625 35.9688 12.1172 37.0156 12.9453C38.0781 13.7734 39.9766 14.5781 42.7109 15.3594C46.3984 16.3438 49.1953 17.7031 51.1016 19.4375C53.0234 21.1562 53.9844 23.3672 53.9844 26.0703C53.9844 27.9766 53.4688 29.6328 52.4375 31.0391C51.4219 32.4453 49.9844 33.5391 48.125 34.3203C46.2812 35.1016 44.1172 35.4922 41.6328 35.4922Z" fill="#F0E6D2"/>
</svg>
