<svg width="239" height="63" viewBox="0 0 239 63" fill="none" xmlns="http://www.w3.org/2000/svg">
<path d="M220.554 31V30.1387L221.668 29.9473V22.1064L220.554 21.915V21.0469H224.847C225.886 21.0469 226.697 21.2725 227.28 21.7236C227.868 22.1702 228.162 22.8424 228.162 23.7402C228.162 24.1823 228.021 24.5788 227.738 24.9297C227.46 25.276 227.091 25.5335 226.631 25.7021C227.228 25.8298 227.7 26.1237 228.046 26.584C228.392 27.0443 228.565 27.5798 228.565 28.1904C228.565 29.1019 228.269 29.7992 227.677 30.2822C227.084 30.7607 226.282 31 225.271 31H220.554ZM223.015 25.2783H225.195C225.678 25.2783 226.068 25.1393 226.364 24.8613C226.665 24.5788 226.815 24.196 226.815 23.7129C226.815 23.1751 226.647 22.7741 226.31 22.5098C225.972 22.2409 225.485 22.1064 224.847 22.1064H223.015V25.2783ZM223.015 29.9473H225.271C225.886 29.9473 226.362 29.7969 226.699 29.4961C227.041 29.1908 227.212 28.7601 227.212 28.2041C227.212 27.6208 227.068 27.1628 226.781 26.8301C226.499 26.4974 226.063 26.3311 225.476 26.3311H223.015V29.9473ZM229.591 31V30.1387L230.705 29.9473V22.1064L229.591 21.915V21.0537H234.027C235.112 21.0537 235.944 21.2952 236.522 21.7783C237.101 22.2568 237.391 22.9382 237.391 23.8223C237.391 24.5059 237.22 25.0596 236.878 25.4834C236.536 25.9072 236.06 26.1989 235.449 26.3584L237.131 29.9951L237.821 30.1182V31H236.16L234.164 26.5156L232.052 26.5566V29.9473L233.166 30.1387V31H229.591ZM232.052 25.4971H233.891C234.643 25.4971 235.189 25.3535 235.531 25.0664C235.873 24.7793 236.044 24.36 236.044 23.8086C236.044 23.2845 235.88 22.8698 235.552 22.5645C235.224 22.2591 234.715 22.1064 234.027 22.1064H232.052V25.4971Z" fill="#F0E6D2"/>
<path d="M72.1562 43V41.5234L74.0664 41.1953V27.6836H70.1992L69.8594 30.0508H68.125V25.9375H82.3047V30.0508H80.5938L80.2422 27.6836H76.375V41.1953L78.2852 41.5234V43H72.1562ZM88.832 43.2461C87.6602 43.2461 86.6406 42.9805 85.7734 42.4492C84.9062 41.9102 84.2344 41.1641 83.7578 40.2109C83.2891 39.2578 83.0547 38.1562 83.0547 36.9062V36.3906C83.0547 35.1875 83.3008 34.1133 83.793 33.168C84.293 32.2148 84.9531 31.4648 85.7734 30.918C86.6016 30.3633 87.5039 30.0859 88.4805 30.0859C90.1836 30.0859 91.4727 30.6016 92.3477 31.6328C93.2305 32.6641 93.6719 34.0391 93.6719 35.7578V37.1992H85.4453L85.4102 37.2578C85.4336 38.4766 85.7422 39.4805 86.3359 40.2695C86.9297 41.0508 87.7617 41.4414 88.832 41.4414C89.6133 41.4414 90.2969 41.332 90.8828 41.1133C91.4766 40.8867 91.9883 40.5781 92.418 40.1875L93.3203 41.6875C92.8672 42.125 92.2656 42.4961 91.5156 42.8008C90.7734 43.0977 89.8789 43.2461 88.832 43.2461ZM85.5156 35.3945H91.3633V35.0898C91.3633 34.1836 91.1211 33.4258 90.6367 32.8164C90.1523 32.207 89.4336 31.9023 88.4805 31.9023C87.707 31.9023 87.0469 32.2305 86.5 32.8867C85.9531 33.5352 85.6172 34.3516 85.4922 35.3359L85.5156 35.3945ZM101.676 43.2461C100.527 43.2461 99.5273 42.9805 98.6758 42.4492C97.8242 41.9102 97.1641 41.1641 96.6953 40.2109C96.2266 39.2578 95.9922 38.1562 95.9922 36.9062V36.4141C95.9922 35.2109 96.2188 34.1328 96.6719 33.1797C97.125 32.2266 97.7773 31.4727 98.6289 30.918C99.4805 30.3633 100.496 30.0859 101.676 30.0859C102.699 30.0859 103.594 30.2539 104.359 30.5898C105.133 30.9258 105.781 31.3867 106.305 31.9727L106.363 35.0195H104.559L104.16 32.8047C103.895 32.5312 103.562 32.3125 103.164 32.1484C102.766 31.9844 102.297 31.9023 101.758 31.9023C101.07 31.9023 100.465 32.1055 99.9414 32.5117C99.4258 32.918 99.0234 33.4609 98.7344 34.1406C98.4453 34.8203 98.3008 35.5781 98.3008 36.4141V36.9062C98.3008 38.2969 98.6016 39.4023 99.2031 40.2227C99.8047 41.0352 100.625 41.4414 101.664 41.4414C102.445 41.4414 103.094 41.2266 103.609 40.7969C104.125 40.3672 104.441 39.7773 104.559 39.0273H106.633L106.656 39.0977C106.617 39.8242 106.402 40.5039 106.012 41.1367C105.621 41.7695 105.062 42.2812 104.336 42.6719C103.617 43.0547 102.73 43.2461 101.676 43.2461ZM108.168 43V41.5234L110.078 41.1953V26.5352L108.168 26.207V24.7188H112.387V32.0078C112.824 31.3984 113.359 30.9258 113.992 30.5898C114.625 30.2539 115.328 30.0859 116.102 30.0859C117.461 30.0859 118.516 30.4922 119.266 31.3047C120.016 32.1172 120.391 33.3672 120.391 35.0547V41.1953L122.301 41.5234V43H116.172V41.5234L118.082 41.1953V35.0312C118.082 32.9844 117.188 31.9609 115.398 31.9609C114.766 31.9609 114.188 32.1133 113.664 32.418C113.148 32.7148 112.723 33.1211 112.387 33.6367V41.1953L114.297 41.5234V43H108.168ZM123.965 43V41.5234L125.875 41.1953V27.7539L123.965 27.4258V25.9375H130.645C132.152 25.9375 133.465 26.2969 134.582 27.0156C135.707 27.7344 136.582 28.7227 137.207 29.9805C137.832 31.2383 138.145 32.6758 138.145 34.293V34.6562C138.145 36.2344 137.844 37.6562 137.242 38.9219C136.641 40.1797 135.785 41.1758 134.676 41.9102C133.574 42.6367 132.27 43 130.762 43H123.965ZM128.184 41.1953H130.645C131.723 41.1953 132.648 40.9023 133.422 40.3164C134.195 39.7227 134.789 38.9336 135.203 37.9492C135.625 36.957 135.836 35.8594 135.836 34.6562V34.2695C135.836 33.0273 135.625 31.918 135.203 30.9414C134.789 29.957 134.195 29.1797 133.422 28.6094C132.648 28.0391 131.723 27.7539 130.645 27.7539H128.184V41.1953ZM145.504 43.2461C144.332 43.2461 143.32 42.9727 142.469 42.4258C141.625 41.8711 140.973 41.1094 140.512 40.1406C140.051 39.1641 139.82 38.0508 139.82 36.8008V36.543C139.82 35.293 140.051 34.1836 140.512 33.2148C140.973 32.2383 141.625 31.4727 142.469 30.918C143.32 30.3633 144.324 30.0859 145.48 30.0859C146.652 30.0859 147.66 30.3633 148.504 30.918C149.355 31.4727 150.012 32.2344 150.473 33.2031C150.934 34.1719 151.164 35.2852 151.164 36.543V36.8008C151.164 38.0586 150.934 39.1758 150.473 40.1523C150.012 41.1211 149.359 41.8789 148.516 42.4258C147.672 42.9727 146.668 43.2461 145.504 43.2461ZM145.504 41.4414C146.598 41.4414 147.43 41.0039 148 40.1289C148.57 39.2539 148.855 38.1445 148.855 36.8008V36.543C148.855 35.6523 148.727 34.8594 148.469 34.1641C148.219 33.4609 147.844 32.9102 147.344 32.5117C146.844 32.1055 146.223 31.9023 145.48 31.9023C144.746 31.9023 144.129 32.1055 143.629 32.5117C143.129 32.9102 142.754 33.4609 142.504 34.1641C142.254 34.8594 142.129 35.6523 142.129 36.543V36.8008C142.129 38.1445 142.41 39.2539 142.973 40.1289C143.543 41.0039 144.387 41.4414 145.504 41.4414ZM159.098 43.2461C157.949 43.2461 156.949 42.9805 156.098 42.4492C155.246 41.9102 154.586 41.1641 154.117 40.2109C153.648 39.2578 153.414 38.1562 153.414 36.9062V36.4141C153.414 35.2109 153.641 34.1328 154.094 33.1797C154.547 32.2266 155.199 31.4727 156.051 30.918C156.902 30.3633 157.918 30.0859 159.098 30.0859C160.121 30.0859 161.016 30.2539 161.781 30.5898C162.555 30.9258 163.203 31.3867 163.727 31.9727L163.785 35.0195H161.98L161.582 32.8047C161.316 32.5312 160.984 32.3125 160.586 32.1484C160.188 31.9844 159.719 31.9023 159.18 31.9023C158.492 31.9023 157.887 32.1055 157.363 32.5117C156.848 32.918 156.445 33.4609 156.156 34.1406C155.867 34.8203 155.723 35.5781 155.723 36.4141V36.9062C155.723 38.2969 156.023 39.4023 156.625 40.2227C157.227 41.0352 158.047 41.4414 159.086 41.4414C159.867 41.4414 160.516 41.2266 161.031 40.7969C161.547 40.3672 161.863 39.7773 161.98 39.0273H164.055L164.078 39.0977C164.039 39.8242 163.824 40.5039 163.434 41.1367C163.043 41.7695 162.484 42.2812 161.758 42.6719C161.039 43.0547 160.152 43.2461 159.098 43.2461ZM165.965 43V41.5234L167.875 41.1953V27.7539L165.965 27.4258V25.9375H173.805C175.625 25.9375 177.039 26.4062 178.047 27.3438C179.062 28.2812 179.57 29.5156 179.57 31.0469C179.57 32.5938 179.062 33.832 178.047 34.7617C177.039 35.6914 175.625 36.1562 173.805 36.1562H170.184V41.1953L172.094 41.5234V43H165.965ZM170.184 34.3516H173.805C174.961 34.3516 175.824 34.043 176.395 33.4258C176.973 32.8008 177.262 32.0156 177.262 31.0703C177.262 30.125 176.973 29.3359 176.395 28.7031C175.824 28.0703 174.961 27.7539 173.805 27.7539H170.184V34.3516ZM185.055 43.2461C183.734 43.2461 182.73 42.9258 182.043 42.2852C181.355 41.6367 181.012 40.7266 181.012 39.5547C181.012 38.3516 181.504 37.3867 182.488 36.6602C183.473 35.9258 184.84 35.5586 186.59 35.5586H188.852V34.3164C188.852 33.5508 188.617 32.957 188.148 32.5352C187.688 32.1133 187.035 31.9023 186.191 31.9023C185.66 31.9023 185.199 31.9688 184.809 32.1016C184.418 32.2266 184.062 32.4023 183.742 32.6289L183.496 34.3984H181.715V31.4922C182.863 30.5547 184.367 30.0859 186.227 30.0859C187.766 30.0859 188.973 30.4531 189.848 31.1875C190.723 31.9219 191.16 32.9727 191.16 34.3398V40.4453C191.16 40.6094 191.16 40.7695 191.16 40.9258C191.168 41.082 191.18 41.2383 191.195 41.3945L192.426 41.5234V43H189.109C188.977 42.3594 188.895 41.7773 188.863 41.2539C188.418 41.8242 187.859 42.3008 187.188 42.6836C186.523 43.0586 185.812 43.2461 185.055 43.2461ZM185.395 41.3125C186.16 41.3125 186.859 41.1289 187.492 40.7617C188.125 40.3945 188.578 39.9531 188.852 39.4375V37.1406H186.508C185.445 37.1406 184.648 37.3945 184.117 37.9023C183.586 38.4102 183.32 38.9766 183.32 39.6016C183.32 40.7422 184.012 41.3125 185.395 41.3125ZM199.785 48.1211C199.176 48.1211 198.516 48.0352 197.805 47.8633C197.094 47.6992 196.469 47.4727 195.93 47.1836L196.527 45.3906C196.957 45.6172 197.465 45.8047 198.051 45.9531C198.637 46.1016 199.207 46.1758 199.762 46.1758C200.793 46.1758 201.547 45.8867 202.023 45.3086C202.508 44.7305 202.75 43.9062 202.75 42.8359V41.6289C201.906 42.707 200.746 43.2461 199.27 43.2461C198.238 43.2461 197.348 42.9922 196.598 42.4844C195.848 41.9688 195.27 41.2539 194.863 40.3398C194.465 39.418 194.266 38.3516 194.266 37.1406V36.8945C194.266 35.5352 194.465 34.3438 194.863 33.3203C195.27 32.2969 195.848 31.5039 196.598 30.9414C197.348 30.3711 198.246 30.0859 199.293 30.0859C200.863 30.0859 202.066 30.6953 202.902 31.9141L203.113 30.3203H206.629V31.7969L205.059 32.1367V42.8359C205.059 44.4766 204.602 45.7656 203.688 46.7031C202.773 47.6484 201.473 48.1211 199.785 48.1211ZM199.844 41.3711C200.539 41.3711 201.121 41.2148 201.59 40.9023C202.059 40.582 202.445 40.1328 202.75 39.5547V33.7188C202.453 33.1797 202.066 32.7539 201.59 32.4414C201.113 32.1211 200.539 31.9609 199.867 31.9609C198.766 31.9609 197.941 32.4219 197.395 33.3438C196.848 34.2656 196.574 35.4492 196.574 36.8945V37.1406C196.574 38.4141 196.844 39.4375 197.383 40.2109C197.922 40.9844 198.742 41.3711 199.844 41.3711ZM213.496 43.2461C212.324 43.2461 211.305 42.9805 210.438 42.4492C209.57 41.9102 208.898 41.1641 208.422 40.2109C207.953 39.2578 207.719 38.1562 207.719 36.9062V36.3906C207.719 35.1875 207.965 34.1133 208.457 33.168C208.957 32.2148 209.617 31.4648 210.438 30.918C211.266 30.3633 212.168 30.0859 213.145 30.0859C214.848 30.0859 216.137 30.6016 217.012 31.6328C217.895 32.6641 218.336 34.0391 218.336 35.7578V37.1992H210.109L210.074 37.2578C210.098 38.4766 210.406 39.4805 211 40.2695C211.594 41.0508 212.426 41.4414 213.496 41.4414C214.277 41.4414 214.961 41.332 215.547 41.1133C216.141 40.8867 216.652 40.5781 217.082 40.1875L217.984 41.6875C217.531 42.125 216.93 42.4961 216.18 42.8008C215.438 43.0977 214.543 43.2461 213.496 43.2461ZM210.18 35.3945H216.027V35.0898C216.027 34.1836 215.785 33.4258 215.301 32.8164C214.816 32.207 214.098 31.9023 213.145 31.9023C212.371 31.9023 211.711 32.2305 211.164 32.8867C210.617 33.5352 210.281 34.3516 210.156 35.3359L210.18 35.3945Z" fill="#F0E6D2"/>
<path d="M64 17H61V51H64V17Z" fill="#F0E6D2"/>
<path d="M12.4688 50.4922C9.20312 50.4922 6.51562 49.6094 4.40625 47.8438C2.3125 46.0781 1.19531 43.3672 1.05469 39.7109L1.10156 39.5703H6.70312C6.79688 41.8359 7.30469 43.4531 8.22656 44.4219C9.14844 45.375 10.4219 45.8516 12.0469 45.8516C13.6562 45.8516 14.9141 45.3359 15.8203 44.3047C16.7266 43.2734 17.1797 41.8359 17.1797 39.9922V20.2109L12.6094 19.5312V15.875H26.8125V19.5078L23.0859 20.2109V39.9922C23.0859 43.1953 22.1719 45.75 20.3438 47.6562C18.5312 49.5469 15.9062 50.4922 12.4688 50.4922ZM42.6328 50.4922C40.3203 50.4922 38.1562 50.2031 36.1406 49.625C34.1406 49.0469 32.1953 48.0859 30.3047 46.7422V38.8906H34.875L35.625 43.9531C36.4375 44.5625 37.4531 45.0469 38.6719 45.4062C39.9062 45.7656 41.2266 45.9453 42.6328 45.9453C44.6953 45.9453 46.2812 45.5078 47.3906 44.6328C48.5 43.7578 49.0547 42.5859 49.0547 41.1172C49.0547 39.7578 48.5391 38.625 47.5078 37.7188C46.4922 36.7969 44.6875 35.9844 42.0938 35.2812C38.2656 34.25 35.3828 32.9219 33.4453 31.2969C31.5078 29.6719 30.5391 27.5156 30.5391 24.8281C30.5391 23 31.0312 21.3828 32.0156 19.9766C33.0156 18.5703 34.3984 17.4609 36.1641 16.6484C37.9297 15.8359 39.9688 15.4219 42.2812 15.4062C44.8125 15.375 47.0469 15.7031 48.9844 16.3906C50.9375 17.0781 52.5859 17.9766 53.9297 19.0859V26.4219H49.4531L48.6094 21.6406C47.9688 21.1875 47.1328 20.8047 46.1016 20.4922C45.0859 20.1641 43.8828 20 42.4922 20C40.7109 20 39.2578 20.4297 38.1328 21.2891C37.0078 22.1328 36.4453 23.2969 36.4453 24.7812C36.4453 26.0625 36.9688 27.1172 38.0156 27.9453C39.0781 28.7734 40.9766 29.5781 43.7109 30.3594C47.3984 31.3438 50.1953 32.7031 52.1016 34.4375C54.0234 36.1562 54.9844 38.3672 54.9844 41.0703C54.9844 42.9766 54.4688 44.6328 53.4375 46.0391C52.4219 47.4453 50.9844 48.5391 49.125 49.3203C47.2812 50.1016 45.1172 50.4922 42.6328 50.4922Z" fill="#F0E6D2"/>
</svg>
